<svg width="60" height="50" fill="none" xmlns="http://www.w3.org/2000/svg"><path d="M59.843 1.307v47.474a2.268 2.268 0 01-2.221 1.254l.008.001H2.194A1.986 1.986 0 010 47.831l-.001.009V2.161A1.986 1.986 0 012.185.002L2.176.001h55.436a2.145 2.145 0 012.225 1.292l.005.014h.001zM22.544 24.983v5.592c.001.366.052.72.146 1.056l-.007-.028a2.392 2.392 0 002.226 1.525c.51 0 .983-.16 1.371-.433l-.008.005c3.328-1.916 6.62-3.85 9.913-5.801a2.144 2.144 0 00.011-3.775l-.011-.006c-3.293-2.021-6.672-3.955-10.052-5.906a2.369 2.369 0 00-3.605 2.167v-.007c.122 1.864.017 3.746.017 5.61l-.001.001zM9.443 6.551V3.572H3.572v2.979h5.871zM3.484 46.376h5.958v-2.927H3.484v2.927zM18.833 3.571h-5.767v2.962h5.767V3.571zm3.623 0v2.962h5.784V3.484l-5.784.087zm15.157 2.98V3.572h-5.767v2.962l5.767.017zm9.425-2.98h-5.819v2.962h5.819V3.571zm-9.407 42.823v-2.84h-5.784v2.927l5.784-.087zm-18.816 0v-2.84h-5.767v2.927l5.767-.087zm9.425 0v-2.84h-5.767v2.944l5.767-.104zm18.798-2.945h-5.819v2.927h5.819v-2.927zm9.251-36.898V3.485h-5.662v3.066h5.662zm0 36.898h-5.662v2.944h5.679l-.017-2.944z" fill="#BDAE82"/></svg>