<svg width="150" height="150" fill="none" xmlns="http://www.w3.org/2000/svg"><path d="M66.265 11.721c-.496.12-2.937.548-5.422.951-46.672 7.57-68.748 64.5-39.853 102.777 8.998 11.92 29.662 25.417 30.686 20.043.128-.672-1.102-1.521-4.156-2.869-12.525-5.532-23.86-16.431-30.044-28.89-22.46-45.247 15.968-96.45 66.149-88.138 7.538 1.25 8.848-1.354 1.46-2.903-3.363-.705-17.006-1.408-18.82-.97zm.301 13.343c-8.824 1.3-20.18 5.818-20.18 8.03 0 1.715 1.274 1.582 5.932-.619 25.513-12.054 56.573 1.135 65.815 27.946 15.36 44.565-35.35 82.289-73.855 54.941-21.397-15.196-26.331-45.38-10.97-67.114 4.075-5.767 1.93-8.206-2.232-2.536-25.645 34.936 1.13 84.282 44.395 81.819 43.674-2.487 64.556-54.82 34.502-86.468-11.018-11.602-28.792-18.154-43.406-16zm52.51 7.867c-.896.896-.211 2.5 2.657 6.226 21.26 27.62 14.299 68.904-14.892 88.328-13.153 8.752-24.702 11.178-46.298 9.725-2.034-.137-2.41.019-2.41 1 0 4.452 25.85 3.245 38.666-1.807 37.583-14.811 52.401-62.624 29.747-95.983-4.299-6.33-6.461-8.497-7.47-7.488zM55.063 55.484c-1.068 1.18-1.16 2.564-1.323 19.995-.27 28.658-3.122 27.792 31.481 9.562 16.864-8.885 16.959-8.606-7.228-21.293-18.91-9.92-20.81-10.605-22.93-8.264zm20.898 10.842c18.373 9.596 18.469 9.656 17.184 10.723C91.704 78.245 58.94 95.18 58.069 95.18c-.7 0-.84-3.15-.84-18.976 0-13.31.197-18.976.658-18.976.361 0 8.495 4.094 18.074 9.097z" fill="#fff"/></svg>